<svg width="34" height="34" viewBox="0 0 34 34" fill="none" xmlns="http://www.w3.org/2000/svg">
<g clip-path="url(#clip0)">
<path d="M28.0833 19.8334C27.2999 19.8334 26.6666 20.468 26.6666 21.25V28.3334H21V5.66664C21 5.04189 20.5891 4.48939 19.9899 4.3095L15.0698 2.83336H26.6666V21.25C26.6666 22.032 27.2999 19.8334 28.0833 19.8334C28.8667 19.8334 29.4999 22.032 29.4999 21.25V1.41671C29.4999 0.634644 28.8667 0 28.0833 0H5.41664C5.36564 0 5.32029 0.02125 5.27075 0.0268945C5.20414 0.034 5.14325 0.0452891 5.0795 0.0608945C4.93075 0.0991445 4.79614 0.15725 4.67011 0.236539C4.63896 0.256395 4.60071 0.257789 4.57096 0.280434C4.55954 0.289 4.55529 0.304605 4.54393 0.313105C4.38954 0.434895 4.26064 0.583645 4.16714 0.76075C4.14729 0.799 4.14304 0.840105 4.1275 0.87975C4.08214 0.987395 4.03261 1.09225 4.01561 1.21125C4.0085 1.25375 4.02125 1.29339 4.01986 1.3345C4.01846 1.36286 4 1.38836 4 1.41664V29.75C4 30.4258 4.47739 31.0066 5.139 31.1384L19.3056 33.9717C19.3977 33.9916 19.4912 34.0001 19.5833 34.0001C19.9077 34.0001 20.2264 33.8882 20.4814 33.6785C20.8087 33.4093 20.9999 33.0084 20.9999 32.5834V31.1667H28.0833C28.8667 31.1667 29.4999 30.5321 29.4999 29.7501V21.25C29.4999 20.468 28.8667 19.8334 28.0833 19.8334Z" fill="#DFDEDE"/>
</g>
<defs>
<clipPath id="clip0">
<rect width="34" height="34" fill="white"/>
</clipPath>
</defs>
</svg>
