<svg width="25" height="28" viewBox="0 0 25 28" fill="none" xmlns="http://www.w3.org/2000/svg">
<path d="M1.73319 27.2875H22.6043C23.064 27.2875 23.5048 27.1078 23.8299 26.788C24.1549 26.4681 24.3375 26.0344 24.3375 25.582V1.70547C24.3375 1.25315 24.1549 0.819358 23.8299 0.49952C23.5048 0.179683 23.064 0 22.6043 0L1.73319 0C1.27352 0 0.832677 0.179683 0.50764 0.49952C0.182604 0.819358 0 1.25315 0 1.70547V25.582C0 26.0344 0.182604 26.4681 0.50764 26.788C0.832677 27.1078 1.27352 27.2875 1.73319 27.2875ZM11.2658 5.11641H18.2713C18.5012 5.11641 18.7216 5.20625 18.8841 5.36617C19.0466 5.52609 19.1379 5.74298 19.1379 5.96914C19.1379 6.1953 19.0466 6.4122 18.8841 6.57211C18.7216 6.73203 18.5012 6.82188 18.2713 6.82188H11.2658C11.0359 6.82188 10.8155 6.73203 10.653 6.57211C10.4905 6.4122 10.3992 6.1953 10.3992 5.96914C10.3992 5.74298 10.4905 5.52609 10.653 5.36617C10.8155 5.20625 11.0359 5.11641 11.2658 5.11641ZM6.06618 10.2328H18.2713C18.5012 10.2328 18.7216 10.3227 18.8841 10.4826C19.0466 10.6425 19.1379 10.8594 19.1379 11.0855C19.1379 11.3117 19.0466 11.5286 18.8841 11.6885C18.7216 11.8484 18.5012 11.9383 18.2713 11.9383H6.06618C5.83634 11.9383 5.61592 11.8484 5.4534 11.6885C5.29088 11.5286 5.19958 11.3117 5.19958 11.0855C5.19958 10.8594 5.29088 10.6425 5.4534 10.4826C5.61592 10.3227 5.83634 10.2328 6.06618 10.2328ZM6.06618 15.3492H18.2713C18.5012 15.3492 18.7216 15.4391 18.8841 15.599C19.0466 15.7589 19.1379 15.9758 19.1379 16.202C19.1379 16.4281 19.0466 16.645 18.8841 16.8049C18.7216 16.9648 18.5012 17.0547 18.2713 17.0547H6.06618C5.83634 17.0547 5.61592 16.9648 5.4534 16.8049C5.29088 16.645 5.19958 16.4281 5.19958 16.202C5.19958 15.9758 5.29088 15.7589 5.4534 15.599C5.61592 15.4391 5.83634 15.3492 6.06618 15.3492ZM6.06618 20.4656H18.2713C18.5012 20.4656 18.7216 20.5555 18.8841 20.7154C19.0466 20.8753 19.1379 21.0922 19.1379 21.3184C19.1379 21.5445 19.0466 21.7614 18.8841 21.9213C18.7216 22.0813 18.5012 22.1711 18.2713 22.1711H6.06618C5.83634 22.1711 5.61592 22.0813 5.4534 21.9213C5.29088 21.7614 5.19958 21.5445 5.19958 21.3184C5.19958 21.0922 5.29088 20.8753 5.4534 20.7154C5.61592 20.5555 5.83634 20.4656 6.06618 20.4656Z" fill="#2D2A35"/>
</svg>
