<svg width="21" height="21" viewBox="0 0 21 21" fill="none" xmlns="http://www.w3.org/2000/svg">
<path d="M13.5333 16.3994H7.46662C7.08004 16.3994 6.7666 16.7128 6.7666 17.0995C6.7666 17.4861 7.08 17.7995 7.46662 17.7995H13.5333C13.9199 17.7995 14.2333 17.4861 14.2333 17.0995C14.2333 16.7128 13.9199 16.3994 13.5333 16.3994Z" fill="#DFDEDE"/>
<path d="M13.5333 14.1917H7.46662C7.08004 14.1917 6.7666 14.505 6.7666 14.8917C6.7666 15.2783 7.08 15.5917 7.46662 15.5917H13.5333C13.9199 15.5917 14.2333 15.2783 14.2333 14.8917C14.2333 14.505 13.9199 14.1917 13.5333 14.1917Z" fill="#DFDEDE"/>
<path d="M19.3667 5.49228H17.1394V1.44097C17.1394 1.05439 16.826 0.740952 16.4394 0.740952H4.56061C4.17404 0.740952 3.8606 1.05435 3.8606 1.44097V5.49228H1.63332C0.732703 5.49228 0 6.22503 0 7.12565V14.1681C0 15.0687 0.732703 15.8014 1.63332 15.8014H3.86072V19.559C3.86072 19.9456 4.17412 20.2591 4.56073 20.2591H16.4393C16.8258 20.2591 17.1393 19.9457 17.1393 19.559V15.8014H19.3667C20.2673 15.8014 21 15.0687 21 14.1681V7.12565C21 6.22507 20.2673 5.49228 19.3667 5.49228ZM5.26058 2.14098H15.7394V5.49228H5.26058V2.14098ZM15.7393 18.859H5.26075C5.26075 18.7222 5.26075 13.3013 5.26075 13.1321H15.7393C15.7393 13.3056 15.7393 18.7275 15.7393 18.859ZM16.4394 9.60267H14.6575C14.271 9.60267 13.9575 9.28927 13.9575 8.90265C13.9575 8.51604 14.2709 8.20264 14.6575 8.20264H16.4394C16.826 8.20264 17.1394 8.51604 17.1394 8.90265C17.1394 9.28927 16.826 9.60267 16.4394 9.60267Z" fill="#DFDEDE"/>
</svg>
