<svg width="31" height="28" viewBox="0 0 31 28" fill="none" xmlns="http://www.w3.org/2000/svg">
<path d="M28.4925 6.71642H25.3107V1.1121C25.3107 0.577346 24.863 0.143753 24.3106 0.143753H7.34096C6.78872 0.143753 6.34094 0.57729 6.34094 1.1121V6.71642H3.15913C1.87252 6.71642 0.825806 7.73005 0.825806 8.9759V18.718C0.825806 19.9638 1.87252 20.9774 3.15913 20.9774H6.34112V26.1754C6.34112 26.7102 6.78883 27.1438 7.34114 27.1438H24.3105C24.8627 27.1438 25.3105 26.7102 25.3105 26.1754V20.9774H28.4925C29.7791 20.9774 30.8258 19.9638 30.8258 18.718V8.9759C30.8258 7.7301 29.7791 6.71642 28.4925 6.71642ZM8.34092 2.08045H23.3106V6.71642H8.34092V2.08045ZM23.3105 25.2071H8.34116C8.34116 25.0178 8.34116 17.5189 8.34116 17.2848H23.3105C23.3105 17.5248 23.3105 25.0251 23.3105 25.2071ZM24.3106 12.4024H21.7652C21.2129 12.4024 20.7651 11.9689 20.7651 11.4341C20.7651 10.8993 21.2129 10.4657 21.7652 10.4657H24.3106C24.8629 10.4657 25.3107 10.8993 25.3107 11.4341C25.3107 11.9689 24.863 12.4024 24.3106 12.4024Z" fill="#2D2A35"/>
</svg>
