<svg width="19" height="25" viewBox="0 0 19 25" fill="none" xmlns="http://www.w3.org/2000/svg">
<path d="M7.86586 1.0829L0.931506 8.78603C0.078 9.73505 0.15195 11.1971 1.10406 12.0506C2.05154 12.9041 3.51359 12.8271 4.3671 11.8781L7.27118 8.65353L7.27118 22.6578C7.27118 23.935 8.30494 24.9687 9.58212 24.9687C10.8593 24.9687 11.8931 23.935 11.8931 22.6578L11.8931 8.65045L14.7971 11.8796C15.6522 12.8286 17.1127 12.9057 18.0602 12.0521C18.567 11.5946 18.8259 10.9645 18.8259 10.3328C18.8259 9.78127 18.6302 9.22818 18.2327 8.78756L11.3015 1.08444C10.8639 0.597602 10.2384 0.31875 9.58366 0.31875C8.92889 0.31875 8.3034 0.597604 7.86586 1.0829Z" fill="#2D2A35"/>
</svg>
