<svg width="17" height="17" viewBox="0 0 17 17" fill="none" xmlns="http://www.w3.org/2000/svg">
<path d="M16.7861 14.6069L12.7041 10.4021C12.4114 10.1004 12.0455 9.97964 11.887 10.1339C11.728 10.287 11.3619 10.1665 11.0692 9.86486L11.0108 9.80449C12.8378 7.40859 12.6605 3.97819 10.4666 1.79063C8.07216 -0.596876 4.18991 -0.596876 1.79581 1.79063C-0.598602 4.17813 -0.598602 8.04864 1.79581 10.4361C4.02706 12.6613 7.54868 12.8103 9.95643 10.8885L9.98206 10.9152C10.2742 11.2168 10.3831 11.5854 10.2235 11.7388C10.0647 11.8922 10.1728 12.2611 10.4658 12.5622L14.5455 16.7687C14.8382 17.0695 15.3205 17.0785 15.6234 16.7864L16.7683 15.6817C17.07 15.3903 17.0782 14.9097 16.7861 14.6069ZM9.11922 9.09258C7.47149 10.7358 4.79013 10.7358 3.14265 9.09313C1.49492 7.45015 1.49517 4.77622 3.14265 3.13354C4.79013 1.49056 7.47149 1.49081 9.11867 3.13379C10.7667 4.77652 10.7667 7.4499 9.11922 9.09258Z" fill="#DFDEDE"/>
</svg>
