<svg width="32" height="38" viewBox="0 0 32 38" fill="none" xmlns="http://www.w3.org/2000/svg">
<path d="M30.1867 0.31665H0.99003C0.483363 0.31665 0.103363 0.633317 0.103363 1.07665V36.86C0.103363 37.3033 0.483363 37.6833 1.05336 37.6833H30.25C30.7567 37.6833 31.2 37.3033 31.2 36.86V1.07665C31.1367 0.633317 30.6934 0.31665 30.1867 0.31665ZM14.1634 5.06665H24.9934C25.5 5.06665 25.9434 5.44665 25.9434 5.88998C25.9434 6.33332 25.5634 6.71332 24.9934 6.71332H14.1634C13.6567 6.71332 13.2134 6.33332 13.2134 5.88998C13.2767 5.44665 13.6567 5.06665 14.1634 5.06665ZM24.9934 32.87H6.18336C5.6767 32.87 5.23336 32.49 5.23336 32.0467C5.23336 31.6033 5.6767 31.2233 6.18336 31.2233H24.9934C25.5 31.2233 25.9434 31.6033 25.9434 32.0467C25.9434 32.49 25.5 32.87 24.9934 32.87ZM24.9934 26.2833H6.18336C5.6767 26.2833 5.23336 25.9033 5.23336 25.46C5.23336 25.0167 5.6767 24.6367 6.18336 24.6367H24.9934C25.5 24.6367 25.9434 25.0167 25.9434 25.46C25.9434 25.9667 25.5 26.2833 24.9934 26.2833ZM24.9934 19.76H6.18336C5.6767 19.76 5.23336 19.38 5.23336 18.9367C5.23336 18.4933 5.6767 18.1133 6.18336 18.1133H24.9934C25.5 18.1133 25.9434 18.4933 25.9434 18.9367C25.9434 19.4433 25.5 19.76 24.9934 19.76ZM24.9934 13.2367H6.18336C5.6767 13.2367 5.23336 12.8567 5.23336 12.4133C5.23336 11.97 5.6767 11.59 6.18336 11.59H24.9934C25.5 11.59 25.9434 11.97 25.9434 12.4133C25.9434 12.8567 25.5 13.2367 24.9934 13.2367Z" fill="#DFDEDE"/>
</svg>
