<svg width="34" height="35" viewBox="0 0 34 35" fill="none" xmlns="http://www.w3.org/2000/svg">
<g clip-path="url(#clip0)">
<path d="M28.0833 20.3334C27.2999 20.3334 26.6666 20.968 26.6666 21.75V28.8334H21V6.16664C21 5.54189 20.5891 4.98939 19.9899 4.8095L15.0698 3.33336H26.6666V21.75C26.6666 22.532 27.2999 20.3334 28.0833 20.3334C28.8667 20.3334 29.4999 22.532 29.4999 21.75V1.91671C29.4999 1.13464 28.8667 0.5 28.0833 0.5H5.41664C5.36564 0.5 5.32029 0.52125 5.27075 0.526895C5.20414 0.534 5.14325 0.545289 5.0795 0.560895C4.93075 0.599145 4.79614 0.65725 4.67011 0.736539C4.63896 0.756395 4.60071 0.757789 4.57096 0.780434C4.55954 0.789 4.55529 0.804605 4.54393 0.813105C4.38954 0.934895 4.26064 1.08364 4.16714 1.26075C4.14729 1.299 4.14304 1.34011 4.1275 1.37975C4.08214 1.48739 4.03261 1.59225 4.01561 1.71125C4.0085 1.75375 4.02125 1.79339 4.01986 1.8345C4.01846 1.86286 4 1.88836 4 1.91664V30.25C4 30.9258 4.47739 31.5066 5.139 31.6384L19.3056 34.4717C19.3977 34.4916 19.4912 34.5001 19.5833 34.5001C19.9077 34.5001 20.2264 34.3882 20.4814 34.1785C20.8087 33.9093 20.9999 33.5084 20.9999 33.0834V31.6667H28.0833C28.8667 31.6667 29.4999 31.0321 29.4999 30.2501V21.75C29.4999 20.968 28.8667 20.3334 28.0833 20.3334Z" fill="#DFDEDE"/>
</g>
<defs>
<clipPath id="clip0">
<rect width="34" height="34" fill="white" transform="translate(0 0.5)"/>
</clipPath>
</defs>
</svg>
