<svg width="17" height="17" viewBox="0 0 17 17" fill="none" xmlns="http://www.w3.org/2000/svg">
<path d="M10.867 2.78283C10.7766 2.69241 10.656 2.64264 10.5274 2.64264C10.3987 2.64264 10.2782 2.69241 10.1878 2.78283L1.69787 11.2727C1.52783 11.4428 1.33793 11.7699 1.27459 12.002L0.0167504 16.6142C-0.0145303 16.729 -0.00174184 16.8316 0.0529545 16.9031C0.100506 16.9654 0.176637 16.9996 0.267357 16.9996C0.304582 16.9996 0.344268 16.9939 0.385335 16.9828L4.99754 15.7249C5.22953 15.6616 5.55669 15.4718 5.72684 15.3017L14.2167 6.81181C14.3071 6.72139 14.3569 6.60077 14.3569 6.47217C14.3569 6.34356 14.3071 6.22294 14.2167 6.13258L10.867 2.78283ZM3.91184 14.5163L3.68957 14.7385C3.6195 14.8086 3.48399 14.8872 3.38841 14.9133L1.77178 15.3542C1.67619 15.3802 1.61933 15.3234 1.64539 15.2278L2.08626 13.6112C2.11232 13.5156 2.19097 13.3801 2.26104 13.31L2.48331 13.0877C2.55338 13.0177 2.66799 13.0177 2.73806 13.0877L3.91178 14.2615C3.9819 14.3316 3.9819 14.4462 3.91184 14.5163Z" fill="#60259A"/>
<path d="M16.6966 2.86402L14.1357 0.303192C13.9404 0.107882 13.6796 0.000289917 13.4016 0.000289917C13.1235 0.000289917 12.8628 0.107882 12.6675 0.303192L11.8722 1.09848C11.8576 1.11301 11.8235 1.14699 11.8235 1.20079C11.8234 1.24576 11.8464 1.29061 11.8937 1.33792L15.6516 5.09582C15.7096 5.15376 15.7648 5.16589 15.801 5.16589C15.8397 5.16589 15.8771 5.1516 15.901 5.12752L16.6965 4.33211C17.1014 3.92738 17.1014 3.26881 16.6966 2.86402Z" fill="#60259A"/>
</svg>
