<svg width="268" height="50" viewBox="0 0 268 50" fill="none" xmlns="http://www.w3.org/2000/svg">
<g filter="url(#filter0_d)">
<path d="M4.97949 2.84082H12.7188V23.8613C12.7188 25.5866 12.9548 27.1247 13.4268 28.4756C13.8988 29.8102 14.5986 30.9414 15.5264 31.8691C16.4704 32.7969 17.6341 33.5049 19.0176 33.9932C20.401 34.4652 22.0124 34.7012 23.8516 34.7012C25.6745 34.7012 27.2777 34.4652 28.6611 33.9932C30.0609 33.5049 31.2246 32.7969 32.1523 31.8691C33.0964 30.9414 33.8044 29.8102 34.2764 28.4756C34.7484 27.1247 34.9844 25.5866 34.9844 23.8613V2.84082H42.7236V24.7891C42.7236 27.2956 42.3005 29.5742 41.4541 31.625C40.6077 33.6758 39.3789 35.4336 37.7676 36.8984C36.1562 38.3633 34.1787 39.4945 31.835 40.292C29.5075 41.0895 26.8464 41.4883 23.8516 41.4883C20.8568 41.4883 18.1875 41.0895 15.8438 40.292C13.5163 39.4945 11.5469 38.3633 9.93555 36.8984C8.32422 35.4336 7.09538 33.6758 6.24902 31.625C5.40267 29.5742 4.97949 27.2956 4.97949 24.7891V2.84082ZM51.2686 12.1914H58.4951V14.6328C60.4157 13.5423 62.2467 12.7773 63.9883 12.3379C65.7461 11.8984 67.4632 11.6787 69.1396 11.6787C71.3369 11.6787 73.3714 12.0042 75.2432 12.6553C77.1149 13.29 78.7344 14.2422 80.1016 15.5117C81.4688 16.7812 82.5348 18.3682 83.2998 20.2725C84.0811 22.1605 84.4717 24.3496 84.4717 26.8398V41H77.2695V28.0117C77.2695 26.4329 77.0417 25.0251 76.5859 23.7881C76.1465 22.5348 75.5036 21.485 74.6572 20.6387C73.8271 19.776 72.8099 19.125 71.6055 18.6855C70.4173 18.2298 69.0827 18.002 67.6016 18.002C66.8203 18.002 66.0146 18.0833 65.1846 18.2461C64.3708 18.4089 63.5651 18.6449 62.7676 18.9541C61.9863 19.2471 61.2295 19.6214 60.4971 20.0771C59.7646 20.5166 59.0973 21.0212 58.4951 21.5908V41H51.2686V12.1914ZM97.167 8.26074C96.4508 8.26074 95.7998 8.16309 95.2139 7.96777C94.6442 7.75618 94.1559 7.47949 93.749 7.1377C93.3421 6.77962 93.0247 6.37272 92.7969 5.91699C92.5853 5.44499 92.4795 4.94857 92.4795 4.42773C92.4795 3.89062 92.5853 3.39421 92.7969 2.93848C93.0247 2.46647 93.3421 2.05957 93.749 1.71777C94.1559 1.37598 94.6442 1.10742 95.2139 0.912109C95.7998 0.700521 96.4508 0.594727 97.167 0.594727C97.8994 0.594727 98.5505 0.700521 99.1201 0.912109C99.7061 1.10742 100.202 1.37598 100.609 1.71777C101.016 2.05957 101.326 2.46647 101.537 2.93848C101.765 3.39421 101.879 3.89062 101.879 4.42773C101.879 4.94857 101.765 5.44499 101.537 5.91699C101.326 6.37272 101.016 6.77962 100.609 7.1377C100.202 7.47949 99.7061 7.75618 99.1201 7.96777C98.5505 8.16309 97.8994 8.26074 97.167 8.26074ZM93.5537 12.1914H100.78V41H93.5537V12.1914ZM106.078 12.167H114.452L121.947 29.501L123.9 34.3594L125.854 29.501L133.349 12.167H141.723L128.075 41H119.726L106.078 12.167ZM147.68 2.84082H161.669C165.754 2.84082 169.302 3.28027 172.313 4.15918C175.325 5.03809 177.815 6.29948 179.784 7.94336C181.77 9.57096 183.243 11.5566 184.203 13.9004C185.18 16.2279 185.668 18.8483 185.668 21.7617C185.668 24.5286 185.188 27.0921 184.228 29.4521C183.267 31.7959 181.802 33.8304 179.833 35.5557C177.864 37.2646 175.373 38.6074 172.362 39.584C169.351 40.5443 165.803 41.0244 161.718 41.0244L147.68 41V2.84082ZM163.573 34.3105C165.884 34.3105 167.911 34.0176 169.652 33.4316C171.394 32.8294 172.842 31.9831 173.998 30.8926C175.17 29.8021 176.049 28.4837 176.635 26.9375C177.221 25.3913 177.514 23.666 177.514 21.7617C177.514 19.89 177.221 18.2054 176.635 16.708C176.049 15.1943 175.17 13.9167 173.998 12.875C172.842 11.8171 171.394 11.0033 169.652 10.4336C167.911 9.86393 165.884 9.5791 163.573 9.5791H155.419V34.3105H163.573ZM190.795 26.5957C190.795 24.5286 191.21 22.5918 192.04 20.7852C192.886 18.9785 194.083 17.3997 195.629 16.0488C197.191 14.6979 199.071 13.6318 201.269 12.8506C203.482 12.0693 205.964 11.6787 208.715 11.6787C211.465 11.6787 213.939 12.0693 216.137 12.8506C218.35 13.6318 220.23 14.6979 221.776 16.0488C223.339 17.3997 224.535 18.9785 225.365 20.7852C226.212 22.5918 226.635 24.5286 226.635 26.5957C226.635 28.6628 226.212 30.5996 225.365 32.4062C224.535 34.2129 223.339 35.7917 221.776 37.1426C220.23 38.4935 218.35 39.5596 216.137 40.3408C213.939 41.1221 211.465 41.5127 208.715 41.5127C205.964 41.5127 203.482 41.1221 201.269 40.3408C199.071 39.5596 197.191 38.4935 195.629 37.1426C194.083 35.7917 192.886 34.2129 192.04 32.4062C191.21 30.5996 190.795 28.6628 190.795 26.5957ZM198.388 26.5957C198.388 27.7513 198.616 28.8499 199.071 29.8916C199.543 30.917 200.219 31.8285 201.098 32.626C201.993 33.4072 203.075 34.0339 204.345 34.5059C205.631 34.9616 207.087 35.1895 208.715 35.1895C210.342 35.1895 211.791 34.9616 213.061 34.5059C214.346 34.0339 215.429 33.4072 216.308 32.626C217.203 31.8285 217.878 30.917 218.334 29.8916C218.806 28.8499 219.042 27.7513 219.042 26.5957C219.042 25.4401 218.806 24.3415 218.334 23.2998C217.878 22.2581 217.203 21.3467 216.308 20.5654C215.429 19.7679 214.346 19.1413 213.061 18.6855C211.791 18.2135 210.342 17.9775 208.715 17.9775C207.087 17.9775 205.631 18.2135 204.345 18.6855C203.075 19.1413 201.993 19.7679 201.098 20.5654C200.219 21.3467 199.543 22.2581 199.071 23.2998C198.616 24.3415 198.388 25.4401 198.388 26.5957ZM232.201 26.6689C232.201 24.5531 232.584 22.5837 233.349 20.7607C234.13 18.9215 235.261 17.3346 236.742 16C238.24 14.6491 240.062 13.5911 242.211 12.8262C244.376 12.0612 246.841 11.6787 249.608 11.6787C250.813 11.6787 252.025 11.752 253.246 11.8984C254.467 12.0449 255.639 12.2565 256.762 12.5332C257.901 12.7936 258.967 13.111 259.96 13.4854C260.953 13.8434 261.815 14.2422 262.548 14.6816L259.203 20.126C257.624 19.3936 256.127 18.8564 254.711 18.5146C253.311 18.1729 251.887 18.002 250.438 18.002C248.778 18.002 247.289 18.2217 245.971 18.6611C244.652 19.0843 243.529 19.6865 242.602 20.4678C241.69 21.2327 240.99 22.1442 240.502 23.2021C240.03 24.2438 239.794 25.3831 239.794 26.6201C239.794 27.8571 240.046 29.0046 240.551 30.0625C241.072 31.1042 241.796 32.0075 242.724 32.7725C243.668 33.5212 244.799 34.1152 246.117 34.5547C247.452 34.9779 248.933 35.1895 250.561 35.1895C252.351 35.1895 254.035 34.9372 255.614 34.4326C257.209 33.9281 258.69 33.2526 260.058 32.4062L263.402 37.8506C262.54 38.3714 261.604 38.8597 260.595 39.3154C259.586 39.7549 258.503 40.1374 257.348 40.4629C256.208 40.7884 255.004 41.0407 253.734 41.2197C252.481 41.415 251.179 41.5127 249.828 41.5127C247.077 41.5127 244.612 41.1383 242.431 40.3896C240.25 39.641 238.402 38.6074 236.889 37.2891C235.375 35.9544 234.211 34.3838 233.397 32.5771C232.6 30.7705 232.201 28.8011 232.201 26.6689Z" fill="#C6C2C2"/>
<path d="M4.97949 2.84082H12.7188V23.8613C12.7188 25.5866 12.9548 27.1247 13.4268 28.4756C13.8988 29.8102 14.5986 30.9414 15.5264 31.8691C16.4704 32.7969 17.6341 33.5049 19.0176 33.9932C20.401 34.4652 22.0124 34.7012 23.8516 34.7012C25.6745 34.7012 27.2777 34.4652 28.6611 33.9932C30.0609 33.5049 31.2246 32.7969 32.1523 31.8691C33.0964 30.9414 33.8044 29.8102 34.2764 28.4756C34.7484 27.1247 34.9844 25.5866 34.9844 23.8613V2.84082H42.7236V24.7891C42.7236 27.2956 42.3005 29.5742 41.4541 31.625C40.6077 33.6758 39.3789 35.4336 37.7676 36.8984C36.1562 38.3633 34.1787 39.4945 31.835 40.292C29.5075 41.0895 26.8464 41.4883 23.8516 41.4883C20.8568 41.4883 18.1875 41.0895 15.8438 40.292C13.5163 39.4945 11.5469 38.3633 9.93555 36.8984C8.32422 35.4336 7.09538 33.6758 6.24902 31.625C5.40267 29.5742 4.97949 27.2956 4.97949 24.7891V2.84082ZM51.2686 12.1914H58.4951V14.6328C60.4157 13.5423 62.2467 12.7773 63.9883 12.3379C65.7461 11.8984 67.4632 11.6787 69.1396 11.6787C71.3369 11.6787 73.3714 12.0042 75.2432 12.6553C77.1149 13.29 78.7344 14.2422 80.1016 15.5117C81.4688 16.7812 82.5348 18.3682 83.2998 20.2725C84.0811 22.1605 84.4717 24.3496 84.4717 26.8398V41H77.2695V28.0117C77.2695 26.4329 77.0417 25.0251 76.5859 23.7881C76.1465 22.5348 75.5036 21.485 74.6572 20.6387C73.8271 19.776 72.8099 19.125 71.6055 18.6855C70.4173 18.2298 69.0827 18.002 67.6016 18.002C66.8203 18.002 66.0146 18.0833 65.1846 18.2461C64.3708 18.4089 63.5651 18.6449 62.7676 18.9541C61.9863 19.2471 61.2295 19.6214 60.4971 20.0771C59.7646 20.5166 59.0973 21.0212 58.4951 21.5908V41H51.2686V12.1914ZM97.167 8.26074C96.4508 8.26074 95.7998 8.16309 95.2139 7.96777C94.6442 7.75618 94.1559 7.47949 93.749 7.1377C93.3421 6.77962 93.0247 6.37272 92.7969 5.91699C92.5853 5.44499 92.4795 4.94857 92.4795 4.42773C92.4795 3.89062 92.5853 3.39421 92.7969 2.93848C93.0247 2.46647 93.3421 2.05957 93.749 1.71777C94.1559 1.37598 94.6442 1.10742 95.2139 0.912109C95.7998 0.700521 96.4508 0.594727 97.167 0.594727C97.8994 0.594727 98.5505 0.700521 99.1201 0.912109C99.7061 1.10742 100.202 1.37598 100.609 1.71777C101.016 2.05957 101.326 2.46647 101.537 2.93848C101.765 3.39421 101.879 3.89062 101.879 4.42773C101.879 4.94857 101.765 5.44499 101.537 5.91699C101.326 6.37272 101.016 6.77962 100.609 7.1377C100.202 7.47949 99.7061 7.75618 99.1201 7.96777C98.5505 8.16309 97.8994 8.26074 97.167 8.26074ZM93.5537 12.1914H100.78V41H93.5537V12.1914ZM106.078 12.167H114.452L121.947 29.501L123.9 34.3594L125.854 29.501L133.349 12.167H141.723L128.075 41H119.726L106.078 12.167ZM147.68 2.84082H161.669C165.754 2.84082 169.302 3.28027 172.313 4.15918C175.325 5.03809 177.815 6.29948 179.784 7.94336C181.77 9.57096 183.243 11.5566 184.203 13.9004C185.18 16.2279 185.668 18.8483 185.668 21.7617C185.668 24.5286 185.188 27.0921 184.228 29.4521C183.267 31.7959 181.802 33.8304 179.833 35.5557C177.864 37.2646 175.373 38.6074 172.362 39.584C169.351 40.5443 165.803 41.0244 161.718 41.0244L147.68 41V2.84082ZM163.573 34.3105C165.884 34.3105 167.911 34.0176 169.652 33.4316C171.394 32.8294 172.842 31.9831 173.998 30.8926C175.17 29.8021 176.049 28.4837 176.635 26.9375C177.221 25.3913 177.514 23.666 177.514 21.7617C177.514 19.89 177.221 18.2054 176.635 16.708C176.049 15.1943 175.17 13.9167 173.998 12.875C172.842 11.8171 171.394 11.0033 169.652 10.4336C167.911 9.86393 165.884 9.5791 163.573 9.5791H155.419V34.3105H163.573ZM190.795 26.5957C190.795 24.5286 191.21 22.5918 192.04 20.7852C192.886 18.9785 194.083 17.3997 195.629 16.0488C197.191 14.6979 199.071 13.6318 201.269 12.8506C203.482 12.0693 205.964 11.6787 208.715 11.6787C211.465 11.6787 213.939 12.0693 216.137 12.8506C218.35 13.6318 220.23 14.6979 221.776 16.0488C223.339 17.3997 224.535 18.9785 225.365 20.7852C226.212 22.5918 226.635 24.5286 226.635 26.5957C226.635 28.6628 226.212 30.5996 225.365 32.4062C224.535 34.2129 223.339 35.7917 221.776 37.1426C220.23 38.4935 218.35 39.5596 216.137 40.3408C213.939 41.1221 211.465 41.5127 208.715 41.5127C205.964 41.5127 203.482 41.1221 201.269 40.3408C199.071 39.5596 197.191 38.4935 195.629 37.1426C194.083 35.7917 192.886 34.2129 192.04 32.4062C191.21 30.5996 190.795 28.6628 190.795 26.5957ZM198.388 26.5957C198.388 27.7513 198.616 28.8499 199.071 29.8916C199.543 30.917 200.219 31.8285 201.098 32.626C201.993 33.4072 203.075 34.0339 204.345 34.5059C205.631 34.9616 207.087 35.1895 208.715 35.1895C210.342 35.1895 211.791 34.9616 213.061 34.5059C214.346 34.0339 215.429 33.4072 216.308 32.626C217.203 31.8285 217.878 30.917 218.334 29.8916C218.806 28.8499 219.042 27.7513 219.042 26.5957C219.042 25.4401 218.806 24.3415 218.334 23.2998C217.878 22.2581 217.203 21.3467 216.308 20.5654C215.429 19.7679 214.346 19.1413 213.061 18.6855C211.791 18.2135 210.342 17.9775 208.715 17.9775C207.087 17.9775 205.631 18.2135 204.345 18.6855C203.075 19.1413 201.993 19.7679 201.098 20.5654C200.219 21.3467 199.543 22.2581 199.071 23.2998C198.616 24.3415 198.388 25.4401 198.388 26.5957ZM232.201 26.6689C232.201 24.5531 232.584 22.5837 233.349 20.7607C234.13 18.9215 235.261 17.3346 236.742 16C238.24 14.6491 240.062 13.5911 242.211 12.8262C244.376 12.0612 246.841 11.6787 249.608 11.6787C250.813 11.6787 252.025 11.752 253.246 11.8984C254.467 12.0449 255.639 12.2565 256.762 12.5332C257.901 12.7936 258.967 13.111 259.96 13.4854C260.953 13.8434 261.815 14.2422 262.548 14.6816L259.203 20.126C257.624 19.3936 256.127 18.8564 254.711 18.5146C253.311 18.1729 251.887 18.002 250.438 18.002C248.778 18.002 247.289 18.2217 245.971 18.6611C244.652 19.0843 243.529 19.6865 242.602 20.4678C241.69 21.2327 240.99 22.1442 240.502 23.2021C240.03 24.2438 239.794 25.3831 239.794 26.6201C239.794 27.8571 240.046 29.0046 240.551 30.0625C241.072 31.1042 241.796 32.0075 242.724 32.7725C243.668 33.5212 244.799 34.1152 246.117 34.5547C247.452 34.9779 248.933 35.1895 250.561 35.1895C252.351 35.1895 254.035 34.9372 255.614 34.4326C257.209 33.9281 258.69 33.2526 260.058 32.4062L263.402 37.8506C262.54 38.3714 261.604 38.8597 260.595 39.3154C259.586 39.7549 258.503 40.1374 257.348 40.4629C256.208 40.7884 255.004 41.0407 253.734 41.2197C252.481 41.415 251.179 41.5127 249.828 41.5127C247.077 41.5127 244.612 41.1383 242.431 40.3896C240.25 39.641 238.402 38.6074 236.889 37.2891C235.375 35.9544 234.211 34.3838 233.397 32.5771C232.6 30.7705 232.201 28.8011 232.201 26.6689Z" fill="url(#paint0_linear)"/>
</g>
<defs>
<filter id="filter0_d" x="0.979492" y="0.594727" width="266.423" height="48.918" filterUnits="userSpaceOnUse" color-interpolation-filters="sRGB">
<feFlood flood-opacity="0" result="BackgroundImageFix"/>
<feColorMatrix in="SourceAlpha" type="matrix" values="0 0 0 0 0 0 0 0 0 0 0 0 0 0 0 0 0 0 127 0"/>
<feOffset dy="4"/>
<feGaussianBlur stdDeviation="2"/>
<feColorMatrix type="matrix" values="0 0 0 0 0 0 0 0 0 0 0 0 0 0 0 0 0 0 0.25 0"/>
<feBlend mode="normal" in2="BackgroundImageFix" result="effect1_dropShadow"/>
<feBlend mode="normal" in="SourceGraphic" in2="effect1_dropShadow" result="shape"/>
</filter>
<linearGradient id="paint0_linear" x1="134" y1="-9" x2="134" y2="54" gradientUnits="userSpaceOnUse">
<stop offset="0.223958" stop-color="white" stop-opacity="0"/>
<stop offset="1"/>
</linearGradient>
</defs>
</svg>
